 <svg  version="1.0" xmlns="http://www.w3.org/2000/svg"  width="300.000000pt" height="300.000000pt" viewBox="0 0 300.000000 300.000000"  preserveAspectRatio="xMidYMid meet">  <g transform="translate(0.000000,300.000000) scale(0.100000,-0.100000)" fill="#ebb8f5" stroke="none"> <path d="M1761 2709 c-102 -20 -181 -129 -181 -249 0 -45 -1 -47 -25 -42 -14 2 -32 -1 -40 -8 -12 -10 -16 -9 -21 3 -3 8 -25 25 -48 38 -31 16 -50 36 -71 76 -54 104 -173 154 -289 122 -56 -15 -128 -87 -161 -160 -31 -70 -37 -172 -12 -230 20 -48 70 -104 107 -119 16 -7 30 -14 30 -15 0 -1 -7 -19 -15 -39 -30 -72 -58 -237 -52 -309 6 -69 46 -177 66 -177 6 0 7 7 4 17 -4 10 -2 14 5 9 6 -3 2 18 -9 49 -10 30 -19 74 -19 97 l1 43 19 -49 c11 -27 24 -54 30 -60 18 -18 11 -55 -27 -129 -20 -39 -48 -106 -64 -147 -22 -61 -31 -74 -46 -70 -10 2 -43 5 -73 5 -54 0 -55 0 -58 -31 -2 -22 7 -46 33 -84 20 -29 32 -56 27 -59 -17 -11 -31 -48 -26 -69 9 -33 -25 -70 -82 -87 -75 -23 -187 -35 -196 -21 -16 23 -7 33 42 46 27 7 50 17 50 20 0 10 -45 50 -57 50 -6 0 -17 -7 -24 -16 -12 -14 -14 -14 -20 3 -5 13 0 24 19 40 21 18 24 25 15 34 -10 10 -17 9 -33 -6 -11 -10 -17 -22 -14 -26 3 -5 2 -9 -3 -9 -4 0 -7 -24 -6 -52 3 -63 -3 -53 -10 15 -4 43 -1 53 24 82 33 37 35 45 14 45 -9 0 -29 10 -45 22 -28 21 -30 21 -49 4 -20 -18 -39 -78 -48 -151 -5 -46 24 -95 58 -95 12 0 19 -7 19 -19 0 -12 9 -23 22 -27 13 -4 39 -19 58 -35 66 -53 145 -81 240 -87 83 -4 91 -3 168 30 72 32 83 34 94 20 7 -8 35 -25 61 -38 27 -12 44 -25 38 -29 -17 -10 -13 -50 8 -69 27 -25 84 -38 112 -27 23 9 23 10 -7 10 -75 2 -130 43 -99 75 8 8 15 17 15 20 0 3 -27 19 -59 36 -33 16 -62 33 -64 37 -3 5 20 31 50 59 l54 51 36 -28 c19 -16 44 -31 56 -34 23 -6 44 -15 87 -33 14 -6 34 -12 44 -14 32 -5 27 -38 -9 -70 -19 -16 -46 -55 -61 -86 -16 -31 -38 -70 -51 -85 -45 -56 -23 -177 32 -177 26 0 47 45 44 96 -3 42 0 49 32 78 29 27 41 32 72 28 29 -3 37 -8 33 -21 -6 -17 -43 -180 -57 -246 -21 -104 -2 -165 51 -165 49 0 61 31 47 113 l-11 68 37 72 c47 92 64 141 72 211 4 31 11 56 15 56 4 0 10 10 13 22 14 56 42 124 56 135 24 19 49 15 56 -7 3 -11 26 -44 50 -74 l44 -53 -22 -21 c-28 -27 -88 -52 -123 -52 -26 0 -27 0 -9 20 16 18 17 24 5 61 -15 44 -34 65 -25 26 5 -19 2 -26 -12 -30 -15 -4 -14 -5 5 -6 25 -1 30 -32 8 -50 -11 -9 -15 -8 -20 5 -4 9 -9 15 -12 12 -2 -3 1 -17 7 -32 9 -18 20 -26 38 -26 47 0 101 20 135 51 41 35 46 36 77 3 13 -14 53 -46 88 -71 46 -33 69 -57 82 -89 22 -48 24 -40 -38 -109 -22 -24 -29 -26 -81 -23 -55 3 -57 2 -57 -22 0 -35 51 -49 105 -27 48 19 53 5 8 -24 -25 -15 -43 -19 -75 -15 -24 3 -43 2 -43 -3 0 -4 18 -21 40 -36 32 -22 55 -29 104 -32 58 -4 66 -2 80 19 18 26 21 74 6 113 -9 24 -8 26 12 20 13 -4 33 -17 45 -28 13 -11 25 -19 27 -16 14 16 26 53 26 79 0 31 -1 32 -35 26 -43 -8 -45 -2 -5 19 36 19 37 28 8 55 -20 18 -22 29 -19 103 3 98 -21 182 -74 261 l-33 50 29 33 c51 59 33 89 -69 119 -43 13 -52 19 -47 32 13 34 27 127 23 154 -3 16 1 33 9 39 7 6 13 18 13 25 0 9 11 14 28 14 65 0 110 105 52 121 -48 13 -86 9 -105 -11 -13 -14 -31 -20 -60 -20 -23 0 -66 -4 -94 -10 -38 -7 -59 -7 -74 2 -21 11 -21 11 -2 19 11 4 31 8 44 8 14 1 32 8 42 17 14 12 22 13 39 4 83 -44 125 125 71 290 -11 36 -21 83 -21 105 0 52 -24 144 -51 196 -30 59 -32 43 -4 -26 13 -33 26 -78 29 -100 l6 -40 -14 40 c-8 22 -25 68 -39 102 l-25 61 43 17 c46 17 109 79 125 121 17 43 12 149 -10 206 -48 129 -154 193 -279 167z m123 -21 c98 -30 177 -172 162 -292 -8 -59 -47 -125 -87 -147 -15 -8 -10 1 14 26 47 48 61 92 55 174 -14 190 -179 290 -335 202 l-38 -21 30 25 c51 43 123 55 199 33z m1 -37 c43 -19 91 -68 107 -110 23 -60 30 -127 18 -169 -13 -50 -67 -114 -111 -132 -22 -10 -27 -15 -17 -21 8 -6 9 -9 2 -9 -7 0 -19 12 -29 26 -16 24 -15 26 9 50 66 67 32 201 -61 240 -60 25 -99 18 -147 -26 -24 -22 -46 -40 -50 -40 -24 0 26 121 65 157 58 53 143 66 214 34z m-655 -21 c20 -5 51 -23 70 -40 l35 -30 -38 24 c-86 56 -193 52 -265 -10 -89 -75 -123 -225 -74 -320 23 -45 78 -98 112 -109 12 -4 19 -9 17 -12 -11 -10 -87 39 -120 78 -129 150 -10 428 183 429 25 0 61 -5 80 -10z m4 -32 c25 -8 61 -32 92 -63 51 -50 51 -50 36 -81 l-14 -31 -24 24 c-29 29 -110 32 -154 6 -93 -54 -99 -223 -9 -256 31 -12 34 -19 19 -46 -8 -15 -16 -17 -47 -11 -160 29 -230 204 -143 357 56 98 139 132 244 101z m584 -98 c57 -35 78 -118 46 -186 -22 -45 -31 -50 -57 -27 -12 11 -34 27 -48 36 -22 13 -27 25 -31 73 -4 47 -10 62 -33 82 -23 19 -25 26 -14 33 26 16 102 10 137 -11z m-142 -39 c-3 -5 -18 -11 -33 -14 -26 -5 -26 -4 -8 9 21 15 49 19 41 5z m-368 -21 c35 -22 38 -26 45 -81 5 -32 2 -37 -29 -54 -19 -10 -55 -40 -80 -67 -49 -53 -57 -53 -104 -3 -20 21 -25 37 -25 80 0 62 23 100 76 127 44 23 76 23 117 -2z m107 0 c4 -6 -5 -10 -20 -10 -15 0 -24 4 -20 10 3 6 12 10 20 10 8 0 17 -4 20 -10z m280 -10 c16 0 32 -93 16 -98 -6 -2 -9 -7 -6 -11 2 -5 -11 -1 -29 8 -18 9 -30 17 -25 19 4 2 18 -2 31 -8 22 -11 22 -10 4 4 -11 9 -37 16 -58 16 -29 0 -38 4 -38 17 0 18 28 53 43 53 5 0 -1 -9 -14 -20 l-24 -19 36 17 c24 11 32 20 25 25 -7 6 -4 7 7 3 10 -3 25 -6 32 -6z m-207 -41 c30 -11 28 -25 -5 -34 -31 -7 -73 -42 -73 -59 0 -6 5 -3 11 6 5 10 20 23 31 29 17 9 15 5 -7 -18 -17 -17 -35 -28 -41 -26 -7 2 -20 25 -29 51 -14 36 -15 47 -5 50 9 3 9 6 0 12 -15 9 88 0 118 -11z m82 -19 c0 -23 -4 -30 -20 -30 -23 0 -35 22 -26 45 3 8 15 15 26 15 16 0 20 -7 20 -30z m89 -51 c31 -13 41 -23 34 -30 -13 -13 -71 9 -92 34 -19 24 1 22 58 -4z m-189 -24 c-13 -14 -28 -25 -34 -25 -5 0 3 13 19 30 16 16 31 28 33 25 3 -3 -5 -16 -18 -30z m-97 1 c4 -10 -9 -24 -38 -40 -51 -30 -117 -103 -151 -166 -14 -25 -22 -34 -18 -20 19 71 83 157 158 212 46 33 42 32 49 14z m256 -17 c26 -20 66 -25 76 -9 8 14 72 -21 113 -61 19 -18 43 -51 54 -73 11 -23 27 -45 34 -49 42 -24 56 -207 20 -262 -20 -30 -33 -28 -17 3 6 12 11 42 10 69 0 39 -2 44 -9 23 -4 -14 -11 -37 -14 -51 -3 -14 -14 -35 -23 -46 l-18 -21 -29 23 c-23 19 -34 21 -54 14 -31 -12 -36 -7 -28 25 5 19 11 23 28 19 13 -3 29 -10 36 -16 7 -5 16 -7 19 -3 10 9 -15 25 -49 33 -27 5 -28 8 -29 72 -2 104 -16 143 -18 48 -1 -86 -30 -173 -60 -180 -9 -2 -39 -5 -68 -6 l-52 -2 14 35 c9 22 14 63 13 108 l-1 73 -7 -80 c-6 -80 -19 -119 -49 -143 -13 -10 -3 -11 59 -7 114 9 115 10 138 62 l20 48 -5 -44 c-2 -25 -7 -49 -10 -55 -4 -5 8 -7 31 -3 40 6 82 -7 90 -29 3 -7 1 -36 -3 -64 -11 -67 -45 -103 -119 -123 -98 -27 -146 -31 -161 -13 -17 20 1 46 31 46 15 0 18 -5 13 -22 -6 -22 -6 -22 9 -4 24 30 20 36 -24 36 -45 0 -61 -20 -41 -51 9 -16 8 -19 -10 -19 -11 0 -17 -4 -14 -10 3 -5 2 -10 -4 -10 -6 0 -7 -8 -4 -17 5 -14 3 -13 -14 3 -17 16 -18 21 -7 30 11 8 1 14 -41 23 -41 9 -60 20 -75 41 -15 21 -17 30 -8 34 11 5 11 7 0 12 -18 9 -4 24 16 17 15 -6 15 -5 4 10 -16 18 -8 37 15 37 11 0 14 -7 11 -25 -4 -19 -1 -25 10 -23 27 5 23 -18 -5 -30 -25 -10 -25 -11 -3 -5 33 7 38 13 46 50 5 26 1 37 -19 57 -34 33 -12 33 36 0 49 -33 59 -24 18 17 -33 32 -34 33 -153 17 -12 -1 -16 -8 -13 -19 3 -9 -2 -24 -11 -33 -14 -14 -14 -19 -2 -34 7 -9 16 -20 21 -23 4 -3 9 -15 12 -27 8 -42 38 -82 62 -82 15 0 21 -5 17 -14 -4 -10 0 -13 14 -9 17 4 19 1 15 -22 -3 -14 -11 -24 -17 -22 -6 3 -10 9 -9 14 1 6 -11 10 -27 9 -17 -1 -30 -4 -30 -8 0 -17 -29 6 -32 25 -2 17 -11 23 -40 25 -21 2 -38 7 -38 13 0 12 -56 12 -79 0 -10 -6 -33 -6 -54 -2 -24 6 -38 5 -41 -3 -3 -6 -2 3 2 19 4 17 7 62 6 100 -1 69 -1 70 11 30 15 -49 29 -51 33 -5 2 19 8 40 14 45 7 7 9 -3 4 -32 -7 -50 7 -64 24 -23 7 16 19 35 27 41 11 10 11 4 -3 -30 -9 -23 -14 -44 -11 -48 4 -3 20 7 38 21 48 41 47 22 -2 -31 l-44 -48 30 -3 c17 -2 34 -8 40 -13 12 -12 25 -12 25 1 0 5 -13 16 -30 22 l-30 13 30 34 c47 53 37 79 -17 44 -26 -17 -26 -17 -14 4 6 12 11 29 11 37 0 26 -28 18 -44 -11 l-15 -28 -1 33 c0 28 -3 32 -18 27 -17 -5 -20 4 -30 72 l-10 78 4 -70 c2 -38 6 -88 9 -110 l4 -40 -11 33 c-14 41 -31 37 -38 -9 -5 -33 -6 -32 -28 34 -12 37 -22 75 -23 85 -1 11 -4 8 -9 -8 -14 -43 -11 -149 5 -187 20 -47 12 -55 -11 -11 -37 70 -29 244 18 396 15 49 23 62 34 58 9 -3 31 -6 51 -6 30 0 34 -3 28 -17 -18 -43 -27 -105 -16 -116 7 -7 13 -1 21 19 42 104 109 193 189 248 34 24 43 26 56 16 14 -12 14 -15 -4 -34 -29 -30 -69 -122 -83 -187 l-12 -57 -39 29 c-44 32 -62 36 -70 15 -4 -9 14 -30 49 -56 54 -42 54 -42 54 -99 0 -97 17 -89 23 11 5 98 25 162 75 247 26 45 27 45 30 18 2 -15 -4 -51 -12 -80 -10 -35 -12 -55 -5 -62 7 -7 8 -4 3 9 -5 13 -4 17 4 12 7 -4 10 -2 7 6 -3 7 1 33 9 58 l13 45 8 -42 c5 -32 1 -59 -14 -106 -18 -52 -26 -65 -51 -74 -17 -6 -30 -16 -30 -22 0 -9 6 -9 20 -1 29 16 24 1 -12 -39 -18 -19 -24 -29 -13 -21 11 8 26 23 33 32 26 35 42 46 62 41 13 -4 20 -14 21 -32 1 -24 2 -24 12 8 14 44 -6 207 -32 266 -18 40 -18 44 -2 61 9 10 3 8 -12 -6 -15 -13 -46 -60 -67 -103 -46 -91 -51 -87 -15 9 34 90 60 131 90 138 13 3 33 20 45 36 21 29 25 31 69 24 25 -4 57 -15 70 -25z m152 6 c32 -24 99 -101 99 -114 0 -3 -14 11 -31 32 -17 21 -53 50 -80 66 -27 15 -46 31 -42 34 10 11 17 9 54 -18z m-513 -295 c23 -17 42 -35 42 -41 0 -9 -51 25 -94 63 -26 22 16 5 52 -22z m206 -26 c6 -51 6 -51 -19 -46 -14 2 -24 10 -21 16 3 6 10 28 17 49 7 20 13 36 14 35 1 -2 5 -26 9 -54z m522 -138 c8 -28 13 -62 13 -76 l-1 -25 -8 25 c-6 16 -7 3 -3 -37 5 -57 3 -64 -20 -87 -35 -35 -51 -34 -33 2 8 16 22 59 30 96 15 64 13 100 -9 172 -6 18 -6 19 6 0 6 -10 18 -42 25 -70z m-36 -86 c-6 -36 -21 -83 -33 -104 -24 -43 -72 -84 -84 -72 -5 4 1 14 12 22 18 13 17 14 -14 8 -25 -5 -32 -4 -27 4 4 7 1 12 -8 12 -23 0 -19 -15 6 -27 l22 -10 -27 -18 c-23 -15 -31 -16 -57 -5 -26 11 -33 10 -50 -5 -18 -16 -20 -16 -26 -1 -4 10 -18 16 -38 17 -32 1 -35 0 87 23 20 4 26 2 21 -7 -4 -6 18 13 49 44 37 37 57 65 57 80 0 44 11 64 43 79 18 8 39 29 47 46 l15 32 8 -27 c4 -14 2 -55 -3 -91z m-66 68 c-1 -13 -3 -25 -3 -27 -1 -3 -6 0 -13 7 -8 8 -8 15 2 27 16 20 17 19 14 -7z m77 -218 c-12 -11 -28 -17 -33 -14 -6 4 2 13 18 20 40 17 43 16 15 -6z m-716 -29 c0 -19 5 -36 11 -38 7 -2 9 8 6 27 -3 24 -1 30 14 30 41 0 49 -16 48 -92 0 -40 -4 -86 -9 -103 l-8 -30 -7 25 c-7 23 -8 23 -9 -8 -1 -18 3 -31 8 -28 8 5 -5 -73 -14 -82 -2 -3 -7 7 -11 22 -7 28 -19 34 -27 14 -4 -8 -6 -9 -6 -2 -1 6 6 17 14 24 18 15 20 80 3 81 -10 0 -10 2 0 6 18 7 15 37 -6 56 -14 13 -18 31 -18 72 1 30 -2 55 -6 55 -11 0 -20 -39 -12 -52 4 -7 7 -26 6 -42 -2 -22 4 -36 20 -48 l23 -17 -23 -17 c-20 -13 -23 -22 -18 -48 7 -33 7 -41 5 -83 -1 -17 7 -33 21 -45 l22 -18 -18 -45 c-20 -48 -37 -54 -42 -14 -3 22 -12 49 -31 88 -4 8 -25 19 -47 26 -52 15 -101 -3 -110 -42 -4 -16 -14 -38 -22 -51 -8 -12 -12 -31 -9 -41 3 -12 -1 -22 -9 -25 -8 -3 -14 -19 -14 -35 0 -16 -4 -33 -10 -36 -14 -9 -13 -61 2 -85 10 -15 9 -22 -5 -38 -9 -10 -17 -23 -17 -29 0 -18 -27 -23 -116 -23 l-84 0 2 28 c1 15 8 33 15 40 16 16 17 29 3 37 -21 13 -10 43 17 50 15 3 53 30 83 58 l55 52 31 125 c38 153 114 342 126 311 4 -13 16 -21 31 -21 40 0 39 -12 -4 -37 -51 -29 -51 -29 -38 3 5 15 8 29 5 31 -3 4 -36 -83 -36 -96 0 -3 5 1 10 9 7 11 10 1 10 -34 0 -37 -6 -56 -22 -75 -13 -14 5 1 39 33 58 56 123 155 123 189 0 17 17 27 40 24 10 -2 15 -14 15 -36z m-70 11 c-11 -12 -65 -10 -65 2 0 8 12 11 36 8 19 -2 32 -7 29 -10z m408 -15 c4 3 7 1 7 -5 0 -7 -9 -12 -19 -12 -11 0 -28 -3 -38 -7 -17 -6 -17 -5 1 15 13 15 23 19 31 12 6 -5 15 -7 18 -3z m532 -9 c28 -13 32 -23 10 -32 -21 -8 -19 -27 3 -19 13 5 11 0 -7 -20 -34 -38 -53 -34 -74 14 -27 61 3 87 68 57z m-626 -17 c9 -15 7 -20 -9 -24 -21 -5 -27 7 -9 19 8 4 7 9 -2 15 -10 6 -10 9 -2 9 7 0 17 -9 22 -19z m151 5 c0 -8 16 -16 39 -20 45 -7 46 -8 56 -55 7 -33 6 -33 -19 -27 -85 20 -76 26 -76 -47 0 -64 0 -65 -32 -76 -17 -6 -32 -10 -33 -9 -1 2 -5 20 -9 41 -5 29 -4 37 8 37 20 0 28 31 28 106 0 57 2 64 19 64 10 0 19 -6 19 -14z m130 -18 c22 -13 40 -27 40 -31 0 -5 -4 -5 -10 -2 -6 4 -10 -7 -10 -25 0 -18 4 -29 10 -25 6 3 10 2 10 -4 0 -5 -4 -11 -9 -13 -5 -1 -11 -28 -14 -59 -2 -31 -10 -65 -16 -76 -5 -11 -7 -23 -4 -27 3 -3 -2 -6 -11 -6 -14 0 -16 5 -10 18 4 9 7 31 6 47 0 25 1 27 8 10 6 -13 7 -3 5 30 -7 84 -21 153 -35 170 -17 21 -6 19 40 -7z m-615 -8 c-4 -6 -11 -8 -16 -5 -5 4 -18 -14 -28 -38 -24 -56 -38 -66 -47 -31 -6 23 -2 32 27 56 32 27 77 39 64 18z m265 1 c0 -6 -5 -13 -11 -16 -6 -4 -9 -21 -7 -37 4 -37 -26 -63 -42 -38 -6 8 -7 24 -4 35 3 11 6 30 6 43 0 18 6 22 29 22 16 0 29 -4 29 -9z m163 -5 c7 -18 -4 -95 -14 -102 -5 -3 -17 0 -28 5 -15 8 -18 20 -16 58 2 26 4 49 4 51 3 9 50 -1 54 -12z m402 -28 c30 -72 31 -180 2 -277 l-25 -84 32 -26 c109 -89 171 -195 189 -322 5 -34 4 -36 -21 -34 -15 1 -31 3 -37 5 -23 6 -35 -1 -35 -19 0 -11 -9 -21 -21 -24 -21 -6 -37 4 -134 86 -40 33 -56 92 -30 111 12 9 15 21 12 46 -3 18 -1 43 5 54 13 24 20 56 23 106 1 19 7 61 14 94 14 62 6 84 -24 72 -11 -4 -14 -12 -10 -27 6 -17 4 -20 -12 -16 -10 3 -44 9 -76 13 -52 6 -57 8 -44 23 21 24 26 44 15 64 -7 13 -5 24 6 36 9 10 16 26 15 37 0 17 -1 16 -9 -3 -5 -13 -12 -23 -15 -23 -2 0 2 18 11 39 9 22 14 50 12 63 -3 21 2 24 57 34 33 6 65 12 71 13 7 0 20 -18 29 -41z m41 17 c-3 -8 -1 -15 4 -15 6 0 10 -8 10 -17 0 -15 -2 -16 -10 -3 -8 13 -10 13 -10 -2 0 -9 5 -18 12 -20 7 -3 8 -9 3 -18 -6 -10 -12 -5 -21 21 -17 48 -17 69 2 69 10 0 14 -6 10 -15z m-521 -30 c0 -21 -7 -33 -27 -45 -26 -14 -29 -13 -50 7 -18 19 -20 26 -11 46 9 20 18 24 50 23 35 -2 38 -4 38 -31z m152 -97 c-2 -13 -4 -3 -4 22 0 25 2 35 4 23 2 -13 2 -33 0 -45z m-303 -28 c1 -57 4 -63 29 -77 26 -13 27 -16 14 -36 -8 -12 -43 -36 -78 -54 -72 -37 -76 -38 -60 -19 18 22 59 150 66 211 10 74 27 58 29 -25z m384 47 c5 -40 -17 -137 -31 -137 -7 1 -25 12 -42 26 -28 23 -29 26 -12 38 12 9 17 27 17 60 l0 47 33 -3 c27 -2 33 -8 35 -31z m-324 -2 c-18 -27 -29 -31 -39 -14 -8 11 22 38 43 39 9 0 8 -7 -4 -25z m111 11 c18 -13 18 -14 -2 -25 -17 -8 -22 -8 -27 5 -14 36 -3 44 29 20z m-45 -26 c4 -16 12 -24 23 -22 24 4 21 -15 -3 -21 -30 -8 -25 -30 5 -24 16 3 24 0 22 -7 -5 -14 -97 -21 -97 -7 0 6 6 10 13 9 6 -2 12 4 12 12 0 8 -7 14 -17 12 -12 -2 -15 3 -11 18 3 11 9 20 14 20 5 0 9 8 9 18 0 14 -2 15 -10 2 -5 -8 -10 -10 -10 -4 0 34 42 29 50 -6z m-582 -21 l50 -10 -13 -51 c-8 -27 -15 -51 -17 -52 -2 -1 -11 -8 -20 -15 -15 -11 -21 -7 -48 35 -29 46 -38 83 -23 97 8 9 13 9 71 -4z m492 -40 c0 -16 -4 -29 -10 -29 -5 0 -10 16 -10 36 0 21 4 33 10 29 6 -3 10 -19 10 -36z m244 -25 c3 -9 6 -17 6 -19 0 -7 -127 -44 -172 -51 -47 -6 -48 -6 -48 20 0 23 4 26 33 27 17 0 61 8 97 18 36 10 68 19 71 20 4 0 10 -6 13 -15z m-1122 -43 c7 -11 18 -17 27 -13 10 3 7 -5 -9 -22 -22 -24 -25 -36 -24 -98 1 -62 -1 -69 -12 -53 -8 10 -14 22 -14 26 0 4 -7 9 -15 13 -13 5 -14 2 -4 -17 11 -20 11 -21 -4 -8 -11 8 -17 9 -17 3 0 -6 12 -18 28 -26 15 -8 22 -15 16 -16 -7 0 -22 8 -34 18 -18 14 -20 21 -11 44 5 15 8 42 5 60 -7 41 18 108 40 108 9 0 21 -9 28 -19z m1160 4 c0 -14 -141 -64 -187 -66 -22 -1 -33 -3 -23 -6 13 -3 15 -15 12 -66 -3 -44 -1 -55 5 -37 5 14 9 39 10 57 1 36 3 38 46 47 28 6 32 3 63 -46 17 -29 32 -46 32 -37 0 9 -11 33 -25 53 -14 20 -25 38 -25 40 0 2 13 8 28 14 23 8 40 4 91 -19 36 -16 58 -22 51 -14 -6 7 -32 22 -56 31 -59 22 -41 34 53 34 75 0 98 -11 62 -30 -15 -8 -19 -9 -15 -1 4 6 2 11 -3 11 -16 0 -13 -36 4 -50 20 -17 19 -31 -2 -23 -9 4 -14 2 -11 -3 4 -5 -18 -9 -50 -9 -56 0 -56 0 -66 -35 -15 -53 -24 -59 -65 -38 -47 24 -60 23 -101 -13 -19 -17 -28 -27 -20 -23 12 5 13 4 3 -6 -10 -11 -15 -11 -27 0 -9 7 -14 16 -11 20 7 11 -35 40 -58 40 -10 0 -16 -3 -14 -7 3 -5 -8 -9 -25 -9 -17 -1 -34 -7 -40 -15 -6 -9 -7 2 -3 35 l7 49 -34 -7 c-28 -6 -31 -5 -18 7 8 8 41 25 73 37 31 13 57 27 57 31 0 4 24 8 53 8 58 1 137 20 182 44 32 17 46 18 47 2z m-523 -12 c31 -26 38 -75 12 -90 -17 -11 -19 -10 -15 2 9 22 -23 65 -57 77 -16 5 -26 14 -23 19 9 15 61 10 83 -8z m-239 -55 c-6 -20 -22 -43 -35 -52 -24 -16 -25 -16 -25 6 0 19 58 93 67 85 1 -2 -2 -19 -7 -39z m199 16 c17 -12 22 -24 19 -45 -3 -22 0 -30 14 -35 11 -3 17 -11 15 -17 -2 -7 0 -20 5 -29 7 -14 5 -18 -10 -18 -30 0 -56 -26 -57 -56 0 -24 -9 -34 -55 -62 -33 -19 -56 -28 -59 -21 -2 6 1 15 7 21 8 8 6 18 -4 34 -20 29 -15 81 6 75 31 -10 93 -6 97 6 2 7 -14 23 -36 38 -43 27 -50 49 -30 88 22 41 50 47 88 21z m841 2 c0 -8 -4 -18 -10 -21 -5 -3 -10 -12 -10 -20 0 -21 -45 -65 -66 -65 -15 0 -12 6 14 33 18 18 32 40 32 48 0 16 19 39 32 39 4 0 8 -6 8 -14z m-123 -101 c-52 -51 -87 -77 -114 -84 -131 -34 -166 -40 -238 -40 -79 0 -136 10 -165 28 -25 17 -5 22 26 7 16 -8 63 -15 104 -16 101 -3 112 -2 105 10 -4 6 -4 18 -1 27 5 12 9 13 22 3 8 -7 13 -19 10 -27 -7 -17 -11 -17 91 12 62 18 96 34 113 53 14 15 18 21 11 14 -20 -16 -31 -15 -31 2 0 15 27 29 39 21 12 -7 91 64 92 83 1 14 2 14 6 -2 3 -13 -17 -39 -70 -91z m39 84 c9 -16 -18 -30 -33 -17 -7 6 -13 14 -13 19 0 13 38 11 46 -2z m237 -39 c33 -16 34 -40 3 -76 l-23 -28 -52 44 c-28 24 -51 44 -51 46 0 1 4 14 10 28 9 25 10 25 47 12 21 -8 50 -19 66 -26z m-894 -14 c10 -11 8 -16 -8 -21 -26 -8 -42 1 -34 20 7 19 27 19 42 1z m721 -30 c0 -29 -14 -49 -44 -62 -28 -12 -29 -13 -7 -14 20 0 22 -2 11 -15 -17 -20 -42 -15 -46 9 -2 17 40 66 57 66 5 0 9 7 9 15 0 8 5 15 10 15 6 0 10 -6 10 -14z m-1330 -6 c0 -9 -31 -30 -44 -30 -4 0 -1 9 6 20 13 21 38 27 38 10z m640 -2 c0 -9 3 -9 12 0 18 18 28 15 28 -8 0 -24 -22 -26 -40 -5 -7 9 -15 13 -18 10 -7 -6 38 -55 50 -55 5 0 6 5 3 10 -3 6 -2 10 4 10 5 0 9 -9 8 -20 -2 -27 -11 -25 -49 8 -21 19 -29 34 -25 45 7 20 27 23 27 5z m494 6 c9 -3 16 -15 16 -26 0 -28 -34 -19 -38 10 -4 24 -2 25 22 16z m-694 -24 c14 -10 21 -22 17 -26 -11 -11 -57 14 -57 31 0 20 10 19 40 -5z m155 0 c3 -10 20 -31 37 -45 17 -14 27 -29 23 -33 -4 -4 -14 3 -22 16 -9 12 -21 22 -28 22 -7 0 -15 8 -19 18 -3 9 -9 23 -12 30 -3 6 -1 12 4 12 6 0 13 -9 17 -20z m665 3 c0 -16 -97 -93 -117 -93 -12 0 -25 -4 -28 -10 -9 -15 -25 -12 -25 4 0 7 20 21 45 31 25 9 56 30 67 46 19 25 58 41 58 22z m-453 -53 c1 -11 -4 -20 -12 -20 -20 0 -30 21 -14 31 21 13 25 11 26 -11z m-859 -7 c5 -17 -26 -29 -40 -15 -6 6 -7 15 -3 22 9 14 37 9 43 -7z m183 -17 c-10 -11 -8 -17 6 -25 17 -10 17 -12 1 -24 -11 -9 -15 -21 -11 -35 5 -19 1 -22 -23 -21 -29 1 -29 1 -4 8 17 5 21 9 12 15 -6 4 -17 4 -24 0 -7 -4 -8 -3 -4 4 4 7 1 12 -9 12 -11 0 -15 -5 -11 -15 7 -18 -8 -20 -21 -2 -13 15 -13 48 -1 63 5 7 19 10 31 7 18 -4 20 -3 7 7 -12 10 -11 11 7 7 13 -3 26 -1 29 4 3 5 10 9 16 9 7 0 6 -5 -1 -14z m1149 -26 c22 0 20 -59 -3 -72 -14 -7 -15 -13 -7 -23 6 -8 7 -16 2 -19 -10 -6 -25 9 -62 62 -18 28 -21 38 -12 57 11 23 13 23 39 10 15 -8 35 -15 43 -15z m-1294 0 c0 -11 -3 -20 -7 -20 -11 0 -29 27 -22 33 13 14 29 6 29 -13z m36 -10 c-2 -16 -8 -30 -12 -30 -13 0 -18 38 -7 49 18 18 24 13 19 -19z m713 15 c17 -8 23 -14 14 -14 -9 -1 -30 6 -45 14 -36 19 -10 19 31 0z m315 -17 c-47 -28 -211 -34 -194 -7 3 5 33 9 67 10 34 0 78 6 97 13 49 17 68 8 30 -16z m-220 -7 c0 -17 -34 -22 -49 -6 -14 13 -12 15 17 15 18 0 32 -4 32 -9z m252 -6 c3 -3 -8 -41 -25 -83 -16 -42 -32 -96 -34 -120 -6 -49 -28 -67 -66 -53 -14 6 -28 15 -32 21 -11 17 26 193 43 206 8 6 24 9 36 7 13 -3 28 2 35 11 13 16 33 21 43 11z m-147 -42 c-6 -99 -52 -163 -101 -141 -38 18 -47 99 -9 84 12 -4 15 3 15 34 l0 39 48 -3 c26 -2 47 -8 47 -13z m-125 -163 c0 -4 -16 -24 -36 -45 -44 -47 -62 -37 -38 21 25 60 33 68 55 48 11 -10 19 -20 19 -24z m93 -2 c-4 -24 -10 -28 -37 -28 l-31 1 35 28 c19 16 36 29 37 28 0 -1 -1 -14 -4 -29z m637 -29 c0 -5 -5 -9 -11 -9 -15 0 -6 -53 10 -58 11 -4 13 2 8 25 -5 28 6 53 24 53 5 0 7 -18 6 -40 -1 -21 -4 -35 -8 -29 -4 6 -6 -7 -5 -28 0 -25 -6 -46 -16 -56 -18 -18 -28 -13 -28 14 0 13 5 17 18 13 9 -2 7 1 -6 7 -12 7 -21 17 -19 23 6 17 -12 46 -28 46 -8 0 -15 5 -15 10 0 6 8 10 17 8 10 -2 18 3 19 10 1 6 2 16 3 22 1 12 31 1 31 -11z m-805 -67 c-7 -8 -35 7 -35 18 0 6 7 6 20 -2 10 -7 17 -14 15 -16z m223 22 c31 -9 28 -36 -13 -110 -19 -34 -35 -69 -35 -78 0 -19 -13 -27 -28 -17 -10 6 -10 14 -3 32 5 13 17 59 26 102 9 42 19 77 23 77 4 0 17 -3 30 -6z m-228 -79 c0 -39 -7 -43 -25 -18 -15 20 -8 53 11 53 9 0 14 -12 14 -35z m880 1 c0 -7 -13 -22 -30 -34 -36 -27 -37 -24 -9 22 20 34 39 40 39 12z m-72 -64 c3 -18 -1 -22 -22 -22 -14 0 -26 -4 -26 -10 0 -5 6 -10 14 -10 15 0 27 -22 25 -48 -1 -10 -4 -7 -8 8 -7 23 -9 22 -20 -18 -17 -62 -44 -86 -89 -78 -55 8 -60 23 -13 36 47 12 69 40 82 102 5 24 12 49 14 56 8 21 40 9 43 -16z m92 -14 c-1 -31 -15 -39 -51 -26 l-34 12 30 12 c39 17 55 17 55 2z m-160 -29 c0 -5 -16 -17 -35 -25 -30 -12 -39 -12 -67 0 l-33 14 40 -5 c24 -2 50 2 65 11 14 8 26 14 28 15 1 1 2 -4 2 -10z m-562 -50 c-12 -7 -24 -7 -35 0 -15 9 -12 10 17 10 29 0 32 -1 18 -10z m2 -59 c0 -16 -5 -32 -10 -35 -15 -9 -40 13 -34 31 2 8 6 21 9 29 7 25 35 5 35 -25z m599 -6 c-17 -21 -21 -11 -8 22 10 23 13 25 16 11 3 -10 -1 -25 -8 -33z m-601 -43 c16 12 16 12 0 -6 -18 -19 -18 -19 -35 0 -17 18 -17 18 0 6 14 -11 20 -11 35 0z"/> <path d="M1796 2174 c19 -33 38 -71 41 -86 3 -15 9 -25 14 -22 10 6 -52 134 -75 153 -9 8 0 -13 20 -45z"/> <path d="M1643 2163 c12 -34 23 -60 25 -58 6 6 -18 81 -32 100 -9 13 -7 -2 7 -42z"/> <path d="M1106 2091 c-3 -5 -13 -33 -21 -62 l-15 -54 4 50 c4 36 2 44 -4 27 -5 -12 -6 -59 -3 -105 l7 -82 8 75 c4 41 14 94 22 118 14 39 15 54 2 33z"/> <path d="M1855 2030 c-4 -17 -5 -34 -2 -36 2 -3 7 10 11 27 3 18 4 34 2 36 -2 3 -7 -10 -11 -27z"/> <path d="M1512 1984 c-1 -28 -4 -67 -7 -85 l-5 -34 11 33 c5 19 8 57 6 85 l-3 52 -2 -51z"/> <path d="M1774 1760 c-6 -6 -26 -19 -44 -28 -48 -24 -53 -48 -6 -26 29 15 40 15 62 5 30 -13 29 -14 38 16 6 18 3 20 -13 16 -13 -3 -20 1 -23 12 -2 12 -6 13 -14 5z"/> <path d="M1254 1499 c-3 -6 5 -21 18 -34 l25 -23 16 28 c10 15 17 32 17 37 -1 4 -8 -5 -16 -20 -16 -30 -34 -28 -34 4 0 21 -15 26 -26 8z"/> <path d="M1008 1364 c-14 -41 -23 -74 -18 -74 8 0 54 139 48 145 -2 2 -15 -30 -30 -71z"/> <path d="M1047 1333 c-12 -11 -8 -33 8 -39 15 -6 45 17 45 35 0 12 -43 15 -53 4z"/> <path d="M1488 1443 c-15 -14 -20 -14 -35 -3 -17 13 -17 13 0 -5 17 -19 17 -19 39 3 12 12 20 22 17 22 -2 0 -12 -7 -21 -17z"/> <path d="M1373 1127 c-13 -18 -23 -37 -23 -43 0 -9 33 28 51 59 18 31 -5 18 -28 -16z"/> <path d="M675 961 c-3 -5 0 -13 5 -16 16 -10 62 4 55 15 -8 13 -52 13 -60 1z"/> <path d="M1227 915 c-9 -20 -17 -41 -16 -48 0 -7 9 8 20 32 23 53 20 66 -4 16z"/> </g> </svg> 